<?xml version="1.0" encoding="UTF-8" standalone="no"?>
<!-- Uploaded to: SVG Repo, www.svgrepo.com, Generator: SVG Repo Mixer Tools -->

<svg
   inkscape:version="1.2.2 (732a01da63, 2022-12-09)"
   sodipodi:docname="gift.svg"
   xml:space="preserve"
   viewBox="0 0 416.43891 71.968193"
   id="_x32_"
   version="1.1"
   width="650.68579"
   height="112.4503"
   xmlns:inkscape="http://www.inkscape.org/namespaces/inkscape"
   xmlns:sodipodi="http://sodipodi.sourceforge.net/DTD/sodipodi-0.dtd"
   xmlns="http://www.w3.org/2000/svg"
   xmlns:svg="http://www.w3.org/2000/svg"><defs
   id="defs2347"><rect
     x="198.14836"
     y="516.29095"
     width="334.72073"
     height="149.99278"
     id="rect2859" /><rect
     x="209.20045"
     y="514.7121"
     width="302.35388"
     height="136.57237"
     id="rect2853" /></defs><sodipodi:namedview
   id="namedview2345"
   pagecolor="#ffffff"
   bordercolor="#000000"
   borderopacity="0.25"
   inkscape:showpageshadow="2"
   inkscape:pageopacity="0.0"
   inkscape:pagecheckerboard="0"
   inkscape:deskcolor="#d1d1d1"
   showgrid="false"
   inkscape:zoom="0.89726539"
   inkscape:cx="441.341"
   inkscape:cy="-16.160213"
   inkscape:window-width="1920"
   inkscape:window-height="1001"
   inkscape:window-x="-9"
   inkscape:window-y="-9"
   inkscape:window-maximized="1"
   inkscape:current-layer="_x32_" />
<style
   type="text/css"
   id="style2338">
	.st0{fill:#000000;}
</style>
<g
   id="g2342"
   transform="matrix(0.11611803,0,0,0.11611803,-0.00301907,0.01795194)"
   style="fill:#f4662f;fill-opacity:1;stroke:none;stroke-opacity:1">
	<path
   class="st0"
   d="m 838.10976,33.000399 c -20.422,-20.431 -48.818,-33.15499984 -80.034,-33.15499984 H 274.199 237.82 113.258 c -31.215,0 -59.655,12.72399984 -80.085,33.15499984 -20.423,20.431 -33.147,48.879 -33.147,80.086001 v 124.543 36.388 232.37083 c 0,31.224 12.724,59.62 33.146,80.043 20.431,20.492 48.871,33.199 80.086,33.199 h 124.561 36.379 483.87676 c 31.216,0 59.613,-12.707 80.034,-33.199 20.492,-20.423 33.199,-48.819 33.147,-80.043 V 274.0174 237.6294 113.0864 c 0.053,-31.207001 -12.654,-59.655001 -33.146,-80.086001 z M 237.819,576.52723 H 113.258 c -19.457,0 -36.862,-7.828 -49.577,-20.535 -12.715,-12.776 -20.535,-30.182 -20.535,-49.604 V 274.0174 h 175.362 l -71.758,74.491 19.414,18.698 71.656,-74.379 v 283.69983 z m 0,-359.61383 0.59005,3.37807 c -0.628,-8.034 -2.155,-24.526 -5.362,-42.241 -1.914,-10.56 -4.414,-21.535 -7.836,-31.535 -1.706,-5.009 -3.664,-9.776 -6,-14.215 -2.354,-4.457 -5.078,-8.595 -8.707,-12.25 -12.56,-12.561 -29.155,-18.914 -45.621,-18.88 -16.474,-0.034 -33.068,6.319 -45.638,18.88 -12.578,12.56 -18.922,29.155 -18.905,45.654 -0.017,16.466 6.327,33.052 18.905,45.621 3.931,3.896 8.414,6.758 13.225,9.224 8.439,4.259 18.077,7.293 28.06,9.776 14.966,3.681 30.655,5.948 42.81,7.354 6.069,0.68 11.25,1.146 14.974,1.456 0.327,0.026 0.577,0.043 0.879,0.069 L 220.343,237.6284 H 43.146 v -124.542 c 0,-19.457001 7.82,-36.828001 20.535,-49.578001 12.715,-12.733 30.12,-20.552 49.577,-20.552 h 124.561 z m -27.29595,-5.57793 c -9.078,-0.957 -21.009,-2.491 -32.819,-4.819 -8.983,-1.758 -17.854,-4 -25.043,-6.604 -3.595,-1.284 -6.75,-2.689 -9.216,-4.051 -2.482,-1.345 -4.25,-2.673 -5.138,-3.586 -7.371,-7.379 -11,-16.914 -11.017,-26.57 0.016,-9.689 3.646,-19.215 11,-26.586 h 0.017 c 7.362,-7.379 16.905,-11 26.577,-11 9.647,0 19.19,3.638 26.569,11 1.06,1.052 2.69,3.276 4.258,6.371 2.802,5.492 5.5,13.56 7.655,22.337 3.259,13.18 5.414,27.991 6.707,39.431 0.164,1.413 0.311,2.775 0.45,4.077 z m 617.62171,295.05276 c 0,19.422 -7.828,36.828 -20.534,49.604 -12.724,12.706 -30.129,20.535 -49.535,20.535 H 274.199 V 293.5344 l 70.974,73.672 19.406,-18.698 -71.75,-74.491 h 535.31676 v 232.37083 z m 0,-268.75883 H 290.982 l 1.15895,1.56007 c 8.147,-0.629 24.448,-2.164 41.974,-5.345 10.577,-1.905 21.534,-4.396 31.535,-7.81 5,-1.715 9.767,-3.672 14.215,-6 4.431,-2.353 8.569,-5.076 12.216,-8.698 12.586,-12.578 18.923,-29.164 18.905,-45.63 0.018,-16.5 -6.319,-33.094 -18.914,-45.654 h 0.009 c -12.561,-12.561 -29.164,-18.914 -45.621,-18.88 -16.474,-0.034 -33.069,6.319 -45.629,18.88 -3.905,3.931 -6.776,8.414 -9.242,13.25 -4.258,8.439 -7.31,18.095 -9.784,28.094 -3.672,14.94 -5.939,30.638 -7.328,42.793 -0.706,6.086 -1.172,11.259 -1.474,15 -0.034,0.414 -0.051,0.742 -0.086,1.112 L 274.198,216.2074 V 42.957399 h 483.87676 c 19.406,0 36.811,7.819 49.535,20.552 12.706,12.75 20.534,30.121 20.534,49.578001 v 124.542 z M 300.79695,211.34447 c 0.957,-9.061 2.482,-20.966 4.81,-32.776 1.768,-9 4.009,-17.888 6.621,-25.077 1.302,-3.596 2.69,-6.751 4.043,-9.233 1.362,-2.466 2.698,-4.251 3.603,-5.139 7.371,-7.362 16.905,-11 26.586,-11 9.656,0 19.198,3.621 26.57,11 h 0.009 c 7.362,7.371 10.991,16.897 11,26.586 -0.009,9.656 -3.638,19.19 -11.009,26.57 -1.035,1.06 -3.258,2.681 -6.38,4.242 -5.474,2.81 -13.551,5.5 -22.31,7.655 -13.172,3.242 -27.974,5.414 -39.413,6.724 -1.433,0.163 -2.812,0.309 -4.13,0.448 z"
   id="path2340"
   sodipodi:nodetypes="csccscsccscsccscccccccscsccccccccccccccccccccccccscsccccccccccscccccccscccccccccccccccccccccccccccscscccccccscccccccc"
   style="fill:#f4662f;fill-opacity:1;stroke:none;stroke-opacity:1" />
</g>
<g
   aria-label="Gift Cards"
   id="text2369"
   style="font-size:61.44px;font-family:Verdana;-inkscape-font-specification:Verdana;letter-spacing:-0.64px;fill:#f4662f;stroke:none;stroke-width:0.64;fill-opacity:1;stroke-opacity:1"><path
     d="m 159.43893,55.709098 q -3.66,1.68 -8.01,2.94 -4.32,1.23 -8.37,1.23 -5.22,0 -9.57,-1.44 -4.35,-1.44 -7.41,-4.32 -3.09,-2.91 -4.77,-7.26 -1.68,-4.38 -1.68,-10.229999 0,-10.71 6.24,-16.89 6.27,-6.21 17.19,-6.21 3.81,0 7.77,0.93 3.99,0.9 8.58,3.09 v 7.05 h -0.54 q -0.93,-0.72 -2.7,-1.89 -1.77,-1.17 -3.48,-1.95 -2.07,-0.93 -4.71,-1.53 -2.61,-0.63 -5.94,-0.63 -7.5,0 -11.88,4.83 -4.35,4.8 -4.35,13.02 0,8.669999 4.56,13.499999 4.56,4.8 12.42,4.8 2.88,0 5.73,-0.57 2.88,-0.57 5.04,-1.47 v -10.95 h -11.97 v -5.219999 h 17.85 z"
     style="fill:#f4662f;fill-opacity:1;stroke:none;stroke-opacity:1"
     id="path3264" /><path
     d="m 174.78893,19.889099 h -6.36 v -5.85 h 6.36 z m -0.36,39.119999 h -5.64 V 25.499099 h 5.64 z"
     style="fill:#f4662f;fill-opacity:1;stroke:none;stroke-opacity:1"
     id="path3266" /><path
     d="m 202.97893,17.789099 h -0.3 q -0.93,-0.27 -2.43,-0.54 -1.5,-0.3 -2.64,-0.3 -3.63,0 -5.28,1.62 -1.62,1.59 -1.62,5.79 v 1.14 h 10.17 v 4.74 h -9.99 v 28.769999 h -5.64 V 30.239099 h -3.81 v -4.74 h 3.81 v -1.11 q 0,-5.97 2.97,-9.15 2.97,-3.21 8.58,-3.21 1.89,0 3.39,0.18 1.53,0.18 2.79,0.42 z"
     style="fill:#f4662f;fill-opacity:1;stroke:none;stroke-opacity:1"
     id="path3268" /><path
     d="m 224.58893,58.709098 c -1.06,0.28 -2.22,0.51 -3.48,0.69 -1.24,0.18 -2.35,0.27 -3.33,0.27 -3.42,0 -6.02,-0.92 -7.8,-2.76 -1.78,-1.84 -2.67,-4.79 -2.67,-8.85 V 30.239099 h -3.81 v -4.74 h 3.81 v -9.63 h 5.64 v 9.63 h 11.64 v 4.74 h -11.64 v 15.269999 c 0,1.76 0.04,3.14 0.12,4.14 0.08,0.98 0.36,1.9 0.84,2.76 0.44,0.8 1.04,1.39 1.8,1.77 0.78,0.36 1.96,0.54 3.54,0.54 0.92,0 1.88,-0.13 2.88,-0.39 1,-0.28 1.72,-0.51 2.16,-0.69 h 0.3 z"
     style="fill:#f4662f;fill-opacity:1;stroke:none;stroke-opacity:1"
     id="path3270"
     sodipodi:nodetypes="ccsssccccccccccscccscccc" /><path
     d="m 285.38892,55.769098 q -1.65,0.72 -3,1.35 -1.32,0.63 -3.48,1.32 -1.83,0.57 -3.99,0.96 -2.13,0.42 -4.71,0.42 -4.86,0 -8.85,-1.35 -3.96,-1.38 -6.9,-4.29 -2.88,-2.85 -4.5,-7.23 -1.62,-4.41 -1.62,-10.229999 0,-5.52 1.56,-9.87 1.56,-4.35 4.5,-7.35 2.85,-2.91 6.87,-4.44 4.05,-1.53 8.97,-1.53 3.6,0 7.17,0.87 3.6,0.87 7.98,3.06 v 7.05 h -0.45 q -3.69,-3.09 -7.32,-4.5 -3.63,-1.41 -7.77,-1.41 -3.39,0 -6.12,1.11 -2.7,1.08 -4.83,3.39 -2.07,2.25 -3.24,5.7 -1.14,3.42 -1.14,7.92 0,4.709999 1.26,8.099999 1.29,3.39 3.3,5.52 2.1,2.22 4.89,3.3 2.82,1.05 5.94,1.05 4.29,0 8.04,-1.47 3.75,-1.47 7.02,-4.41 h 0.42 z"
     style="fill:#f4662f;fill-opacity:1;stroke:none;stroke-opacity:1"
     id="path3272" /><path
     d="m 318.73893,59.009098 h -5.61 v -3.57 q -0.75,0.51 -2.04,1.44 -1.26,0.9 -2.46,1.44 -1.41,0.69 -3.24,1.14 -1.83,0.48 -4.29,0.48 -4.53,0 -7.68,-3 -3.15,-3 -3.15,-7.65 0,-3.81 1.62,-6.15 1.65,-2.37 4.68,-3.72 3.06,-1.349999 7.35,-1.829999 4.29,-0.48 9.21,-0.72 v -0.87 q 0,-1.92 -0.69,-3.18 -0.66,-1.26 -1.92,-1.98 -1.2,-0.69 -2.88,-0.93 -1.68,-0.24 -3.51,-0.24 -2.22,0 -4.95,0.6 -2.73,0.57 -5.64,1.68 h -0.3 v -5.73 q 1.65,-0.45 4.77,-0.99 3.12,-0.54 6.15,-0.54 3.54,0 6.15,0.6 2.64,0.57 4.56,1.98 1.89,1.38 2.88,3.57 0.99,2.19 0.99,5.43 z m -5.61,-8.25 v -9.33 q -2.58,0.15 -6.09,0.45 -3.48,0.3 -5.52,0.87 -2.43,0.69 -3.93,2.16 -1.5,1.44 -1.5,3.99 0,2.88 1.74,4.35 1.74,1.44 5.31,1.44 2.97,0 5.43,-1.14 2.46,-1.17 4.56,-2.79 z"
     style="fill:#f4662f;fill-opacity:1;stroke:none;stroke-opacity:1"
     id="path3274" /><path
     d="m 349.86893,31.649099 h -0.3 q -1.26,-0.3 -2.46,-0.42 -1.17,-0.15 -2.79,-0.15 -2.61,0 -5.04,1.17 -2.43,1.14 -4.68,2.97 v 23.789999 h -5.64 V 25.499099 h 5.64 v 4.95 q 3.36,-2.7 5.91,-3.81 2.58,-1.14 5.25,-1.14 1.47,0 2.13,0.09 0.66,0.06 1.98,0.27 z"
     style="fill:#f4662f;fill-opacity:1;stroke:none;stroke-opacity:1"
     id="path3276" /><path
     d="m 381.71893,59.009098 h -5.64 v -3.51 q -2.43,2.1 -5.07,3.27 -2.64,1.17 -5.73,1.17 -6,0 -9.54,-4.62 -3.51,-4.62 -3.51,-12.81 0,-4.259999 1.2,-7.589999 1.23,-3.33 3.3,-5.67 2.04,-2.28 4.74,-3.48 2.73,-1.2 5.64,-1.2 2.64,0 4.68,0.57 2.04,0.54 4.29,1.71 v -14.52 h 5.64 z m -5.64,-8.25 V 31.529099 q -2.28,-1.02 -4.08,-1.41 -1.8,-0.39 -3.93,-0.39 -4.74,0 -7.38,3.3 -2.64,3.3 -2.64,9.359999 0,5.97 2.04,9.09 2.04,3.09 6.54,3.09 2.4,0 4.86,-1.05 2.46,-1.08 4.59,-2.76 z"
     style="fill:#f4662f;fill-opacity:1;stroke:none;stroke-opacity:1"
     id="path3278" /><path
     d="m 416.11891,49.349098 q 0,4.59 -3.81,7.53 -3.78,2.94 -10.35,2.94 -3.72,0 -6.84,-0.87 -3.09,-0.9 -5.19,-1.95 v -6.33 h 0.3 q 2.67,2.01 5.94,3.21 3.27,1.17 6.27,1.17 3.72,0 5.82,-1.2 2.1,-1.2 2.1,-3.78 0,-1.98 -1.14,-3 -1.14,-1.02 -4.38,-1.74 -1.2,-0.27 -3.15,-0.63 -1.92,-0.36 -3.51,-0.78 -4.41,-1.17 -6.27,-3.42 -1.83,-2.279999 -1.83,-5.579999 0,-2.07 0.84,-3.9 0.87,-1.83 2.61,-3.27 1.68,-1.41 4.26,-2.22 2.61,-0.84 5.82,-0.84 3,0 6.06,0.75 3.09,0.72 5.13,1.77 v 6.03 h -0.3 q -2.16,-1.59 -5.25,-2.67 -3.09,-1.11 -6.06,-1.11 -3.09,0 -5.22,1.2 -2.13,1.17 -2.13,3.51 0,2.07 1.29,3.12 1.26,1.05 4.08,1.71 1.56,0.359999 3.48,0.719999 1.95,0.36 3.24,0.66 3.93,0.9 6.06,3.09 2.13,2.22 2.13,5.88 z"
     style="fill:#f4662f;fill-opacity:1;stroke:none;stroke-opacity:1"
     id="path3280" /></g><text
   xml:space="preserve"
   transform="matrix(0.64,0,0,0.64,-0.02599998,-338.89385)"
   id="text2851"
   style="font-style:normal;font-variant:normal;font-weight:normal;font-stretch:normal;font-size:53.3333px;font-family:Verdana;-inkscape-font-specification:Verdana;white-space:pre;shape-inside:url(#rect2853);fill:#000000;fill-opacity:1;stroke:#000000" /><text
   xml:space="preserve"
   transform="matrix(0.64,0,0,0.64,-0.02599998,-338.89385)"
   id="text2857"
   style="font-style:normal;font-variant:normal;font-weight:normal;font-stretch:normal;font-size:53.3333px;font-family:Verdana;-inkscape-font-specification:Verdana;white-space:pre;shape-inside:url(#rect2859);fill:#000000;fill-opacity:1;stroke:#000000" /></svg>
