<svg xmlns="http://www.w3.org/2000/svg" xmlns:xlink="http://www.w3.org/1999/xlink" width="512" height="512" x="0" y="0" viewBox="0 0 60.062 60.062" style="enable-background:new 0 0 512 512" xml:space="preserve" class="">  <g>    <path d="M60.046 11.196c.004-.024.011-.048.013-.072a1.054 1.054 0 0 0-.01-.224c-.002-.019.001-.037-.002-.056a1.003 1.003 0 0 0-.1-.289c-.008-.016-.019-.031-.028-.047-.002-.002-.002-.005-.003-.008-.001-.002-.004-.003-.005-.006l-.02-.033a.987.987 0 0 0-.221-.23c-.019-.014-.041-.022-.061-.035a.959.959 0 0 0-.236-.116c-.037-.012-.074-.018-.112-.025a.966.966 0 0 0-.34-.011c-.026.004-.051 0-.077.006L.798 22.046a1 1 0 0 0-.265 1.864l16.632 8.773 2.917 16.187c-.002.012.001.025 0 .037a.94.94 0 0 0 .019.354c.023.095.06.184.11.268.01.016.01.035.021.051.003.005.008.009.012.013.013.019.031.034.046.053.047.058.096.111.152.156.009.007.015.018.025.025.015.011.032.014.047.024.061.04.124.073.191.099.027.01.052.022.08.03.09.026.183.044.277.044h.003l.012-.002a.993.993 0 0 0 .763-.313l11.079-7.386 11.6 7.54a1.005 1.005 0 0 0 .86.11 1 1 0 0 0 .623-.604L59.998 11.38a.915.915 0 0 0 .033-.105c.004-.015.005-.03.008-.044l.007-.035zm-11.582 6.383L24.471 35.22c-.039.029-.07.065-.104.099-.013.012-.026.022-.037.035a1.01 1.01 0 0 0-.059.071c-.018.024-.032.049-.048.074-.037.06-.068.122-.092.188-.005.013-.013.023-.017.036-.001.004-.005.006-.006.01l-2.75 8.937-2.179-12.091 29.285-15zM22.908 46.594l2.726-9.004 4.244 2.759 1.214.789-4.124 2.749-4.06 2.707zm29.136-33.096L18.071 30.899l-14.14-7.458 48.113-9.943zm-7.485 34.006L29.154 37.492l-2.333-1.517 30.154-22.172-12.416 33.701z" fill="#009fe3" opacity="1" data-original="#000000"></path>  </g></svg>