<?xml version="1.0" encoding="UTF-8"?>
<svg xmlns="http://www.w3.org/2000/svg" id="Layer_1" height="512" viewBox="0 0 98 98" width="512">
  <g>
    <path d="m90.186 25.8204h-23.8515c-3.7568 0-6.8135 3.0566-6.8135 6.814v12.6548h37.479v-12.6549c0-3.7573-3.0566-6.8139-6.814-6.8139zm4.814 17.4687h-7.0366v-6.4365h-2v6.4365h-15.4063v-6.4365h-2v6.4365h-7.0361v-10.6548c0-2.6543 2.1592-4.814 4.8135-4.814h23.8515c2.6543 0 4.814 2.1597 4.814 4.814z"></path>
    <path d="m34.1646 23.4334.6309 1.1624c.8496-.4614 1.7295-.8867 2.6152-1.2646l-.7852-1.8398c-.8323.3556-1.6563.7554-2.4609 1.1809v-15.0839h-21.9698l-11.1948 11.1949v27.2695h33.1646zm-22.5557-12.4309v7.1948h-7.1948zm20.5557 33.0503h-29.1646v-23.8555h10.6089v-10.6089h18.5557z"></path>
    <path d="m24.528 37.752h3.426v2h-3.426z"></path>
    <path d="m12.868 37.752h9.988v2h-9.988z"></path>
    <path d="m7.21 37.752h4.121v2h-4.121z"></path>
    <path d="m24.257 31.786h3.697v2h-3.697z"></path>
    <path d="m12.868 31.786h9.717v2h-9.717z"></path>
    <path d="m7.21 31.786h4.483v2h-4.483z"></path>
    <path d="m24.707 25.82h3.248v2h-3.248z"></path>
    <path d="m12.054 25.82h10.53v2h-10.53z"></path>
    <path d="m7.21 25.82h3.398v2h-3.398z"></path>
    <path d="m20.144 19.855h7.81v2h-7.81z"></path>
    <path d="m16.011 19.855h2.235v2h-2.235z"></path>
    <path d="m25.789 13.889h2.165v2h-2.165z"></path>
    <path d="m16.011 13.889h7.613v2h-7.613z"></path>
    <path d="m78.2603 20.857c5.3501 0 9.7031-4.353 9.7031-9.7031s-4.353-9.7031-9.7031-9.7031-9.7031 4.353-9.7031 9.7031 4.353 9.7031 9.7031 9.7031zm0-17.4063c4.2476 0 7.7031 3.4556 7.7031 7.7031s-3.4556 7.7031-7.7031 7.7031-7.7031-3.4556-7.7031-7.7031 3.4555-7.7031 7.7031-7.7031z"></path>
    <path d="m67.2612 62.4356 2.9048-4.4512-6.5425-6.5488-4.4561 2.9097c-1.228-.6699-2.5293-1.2095-3.8828-1.6104l-1.0942-5.2031h-9.2573l-1.0898 5.2017c-1.3418.3945-2.6445.9351-3.8862 1.6118l-4.4521-2.9102-6.5425 6.5493 2.9043 4.4502c-.6714 1.2305-1.2114 2.5322-1.6108 3.8833l-5.2026 1.0942v9.2568l5.2026 1.0942c.3994 1.3511.9395 2.6528 1.6108 3.8833l-2.9043 4.4502 6.5425 6.5488 4.4521-2.9097c1.2422.6768 2.5449 1.2173 3.8862 1.6113l1.0894 5.2021h9.2578l1.0942-5.2036c1.354-.4009 2.6558-.9404 3.8828-1.6099l4.4561 2.9092 6.543-6.5483-2.9058-4.4478c.6758-1.2451 1.2148-2.5474 1.6079-3.8857l5.2017-1.0942v-9.2568l-5.2012-1.0942c-.3936-1.3392-.9327-2.6405-1.608-3.8822zm4.8091 12.6104-4.8154 1.0127-.1558.6001c-.4067 1.5703-1.0361 3.0928-1.8711 4.5259l-.311.5332 2.687 4.1133-4.2471 4.2515-4.1245-2.6929-.5347.314c-1.4028.8247-2.9238 1.4556-4.5205 1.875l-.5977.1572-1.0122 4.8135h-6.0098l-1.0088-4.8159-.6006-.1558c-1.5747-.4077-3.0967-1.0386-4.5234-1.8745l-.5342-.313-4.1191 2.6919-4.2476-4.251 2.689-4.1206-.314-.5342c-.8276-1.4077-1.4585-2.9287-1.8755-4.52l-.1567-.5981-4.8135-1.0122v-6.0107l4.8135-1.0122.1567-.5981c.417-1.5913 1.0479-3.1118 1.8755-4.52l.314-.5342-2.689-4.1206 4.2476-4.2515 4.1191 2.6924.5342-.313c1.4268-.8359 2.9482-1.4668 4.5234-1.8755l.6006-.1558 1.0083-4.8149h6.0103l1.0122 4.813.5977.1572c1.5957.4189 3.1167 1.0503 4.5205 1.8755l.5347.314 4.1245-2.6934 4.2476 4.252-2.688 4.1191.312.5337c.834 1.4263 1.4634 2.9468 1.8706 4.5195l.1558.6001 4.8154 1.0127z"></path>
    <path d="m49.562 59.6553c-1.8198 0-3.5732.3857-5.2109 1.1465l.8428 1.8135c1.3716-.6367 2.8413-.96 4.3682-.96 5.7266 0 10.3853 4.6587 10.3853 10.3853s-4.6588 10.3852-10.3854 10.3852-10.3857-4.6587-10.3857-10.3853c0-2.2671.7173-4.4209 2.0747-6.2285l-1.5996-1.2012c-1.6191 2.1572-2.4751 4.7261-2.4751 7.4297 0 6.8291 5.5562 12.3853 12.3857 12.3853 6.8291 0 12.3853-5.5562 12.3853-12.3853s-5.5562-12.3852-12.3853-12.3852z"></path>
    <path d="m54.8101 19.273c-1.0142-.1626-2.0483-.2783-3.0737-.3452l-.1299 1.9961c.9634.0625 1.9351.1714 2.8882.3237z"></path>
    <path d="m42.9375 21.5665-.4248-1.9541c-1.0039.2183-2.0093.4873-2.9883.7998l.6084 1.9053c.919-.2935 1.8628-.546 2.8047-.751z"></path>
    <path d="m66.3799 23.462c-.8823-.5239-1.8013-1.0127-2.7305-1.4526l-.8555 1.8076c.873.4131 1.7358.8726 2.5645 1.3647z"></path>
    <path d="m60.7935 20.8194c-.9648-.3496-1.959-.6572-2.9546-.915l-.501 1.9365c.9346.2417 1.8682.5308 2.7749.8594z"></path>
    <path d="m48.6997 20.8687-.0547-1.999c-1.0313.0283-2.0688.105-3.0835.228l.2402 1.9854c.9537-.1153 1.9288-.1875 2.898-.2144z"></path>
    <path d="m20.0811 66.6353c.4619.918.9727 1.8242 1.5181 2.6948l1.6943-1.0625c-.5122-.8174-.9917-1.6689-1.4253-2.5308z"></path>
    <path d="m19.7612 60.3321-1.9238.5469c.2813.9878.6128 1.9741.9858 2.9316l1.8633-.7266c-.3501-.8984-.6616-1.8247-.9253-2.7519z"></path>
    <path d="m18.7056 54.627-1.9922.1777c.0918 1.0234.2324 2.0542.4189 3.063l1.9668-.3633c-.1753-.9477-.3076-1.916-.3935-2.8774z"></path>
    <path d="m18.7266 48.8213-1.9902-.1934c-.0991 1.0171-.1509 2.0562-.1543 3.0884l2 .0068c.0033-.9701.0517-1.9462.1445-2.9018z"></path>
    <path d="m82.4976 50.1226c-.0527-1.0303-.1543-2.0654-.3018-3.0776l-1.9795.2891c.1387.9502.2344 1.9229.2842 2.8911z"></path>
    <path d="m80.2603 56.0279 1.9824.2676c.1372-1.0171.2285-2.0537.2705-3.0811l-1.998-.082c-.0401.9653-.1256 1.9394-.2549 2.8955z"></path>
    <path d="m76.5918 66.9849 1.7441.9795c.5034-.897.9697-1.8271 1.3857-2.7656l-1.8281-.8105c-.3911.8808-.8286 1.7548-1.3017 2.5966z"></path>
    <path d="m74.7085 69.9346 1.623 1.1689c.123-.1709.2446-.3428.3647-.5166l-1.644-1.1387c-.1127.1632-.2275.3253-.3437.4864z"></path>
    <path d="m78.9453 61.6793 1.8965.6357c.3257-.9727.6094-1.9741.8428-2.9771l-1.9482-.4531c-.2188.9414-.4854 1.8819-.7911 2.7945z"></path>
    <path d="m54.7813 72.0406c0-2.7251-2.2173-4.9424-4.9429-4.9424-2.7251 0-4.9424 2.2173-4.9424 4.9424s2.2173 4.9424 4.9424 4.9424c2.7256 0 4.9429-2.2173 4.9429-4.9424zm-7.8853 0c0-1.6226 1.3198-2.9424 2.9424-2.9424s2.9429 1.3198 2.9429 2.9424-1.3203 2.9424-2.9429 2.9424-2.9424-1.3199-2.9424-2.9424z"></path>
  </g>
</svg>
