<svg id="Layer_1" data-name="Layer 1" xmlns="http://www.w3.org/2000/svg" xmlns:xlink="http://www.w3.org/1999/xlink" viewBox="0 0 741.38 155.12"><defs><style>.cls-1{fill:#262262;}.cls-2{fill:#26a6a4;}.cls-3{fill:url(#linear-gradient);}</style><linearGradient id="linear-gradient" x1="76.66" y1="18.02" x2="78.32" y2="176.31" gradientUnits="userSpaceOnUse"><stop offset="0" stop-color="#26a6a4"/><stop offset="1" stop-color="#662d91"/></linearGradient></defs><title>gnodesign-logo</title><path class="cls-1" d="M238,121.79c-26,0-43.89-13-43.89-40,0-27.5,16.73-42.74,43.89-42.74a75.31,75.31,0,0,1,23.49,3.32l-1,13.52a52.83,52.83,0,0,0-20.62-4.24c-18.68,0-29,12.61-29,29,0,16.16,10.09,28.54,27.16,28.54A37.85,37.85,0,0,0,248.5,108V87.18h-17V74.58h32.32v43.09C255.27,120,246.67,121.79,238,121.79Z"/><path class="cls-1" d="M312.45,120.42V88.9c0-7.22-.12-17-10-17-11,0-13.52,12-13.52,19.6v28.88H273.72V70.91a67.83,67.83,0,0,0-.81-9.51h14.33l.69,4.59v3.66h.22C293.08,62.32,300,60,307.75,60c14.1,0,20.05,9.74,20.05,23.14v37.25Z"/><path class="cls-1" d="M364.93,121.79c-19.59,0-30.82-13.63-30.82-30.48,0-19.6,13.41-31.28,30.82-31.28s30.94,11.68,30.94,31.28C395.87,108.16,384.64,121.79,364.93,121.79ZM350.15,89.48c0,9.62,3.21,20.39,14.78,20.39,11.81,0,14.9-10.54,14.9-20.39,0-9.06-4.81-17.54-14.9-17.54S350.15,80.65,350.15,89.48Z"/><path class="cls-2" d="M442.17,120.42l-.69-4.59V113.2h-.22c-4.47,6.3-11.58,8.59-18.11,8.59-18.11,0-24.75-14.9-24.75-31.05S405,60,423.15,60c8.14,0,13.41,3.32,17.65,8.93H441V34.47h15.35v72.77a94.16,94.16,0,0,0,.8,13.18ZM414.44,90.74c0,8.13,2.87,19.13,12.95,19.13S440.91,99,440.91,90.74s-3.9-18.8-13.75-18.8S414.44,82.83,414.44,90.74Z"/><path class="cls-2" d="M477.35,95.66c.81,9.63,7.22,14.9,16.85,14.9A34.94,34.94,0,0,0,512,105.63l2.64,11.12a43.84,43.84,0,0,1-21.09,5c-19.59,0-30.82-11-30.82-30.59,0-17.08,9.05-31.17,27.38-31.17,20.63,0,27.05,13.17,28,31.51a10.61,10.61,0,0,1,.12,2.06v2.06ZM491,71.26c-8.71,0-12.83,6-13.64,13.86h26.13C503.14,77.79,499.47,71.26,491,71.26Z"/><path class="cls-2" d="M538.66,121.79a71.93,71.93,0,0,1-18.9-2.86l3.32-11.81a30.94,30.94,0,0,0,14.21,3.44c3.89,0,10.08-1.49,10.08-7.22,0-11.46-26.7-3.66-26.7-25C520.67,65.64,531.9,60,543.82,60a62.61,62.61,0,0,1,17.65,2.52l-2.75,10.88c-4.93-1.49-7.45-2.17-13-2.17-4.13,0-9.06,1.49-9.06,6.53,0,9.51,26.71,3.44,26.71,24.75C563.42,116.29,551.15,121.79,538.66,121.79Z"/><path class="cls-2" d="M577.51,52.69a8.54,8.54,0,1,1,8.59-8.48A8.55,8.55,0,0,1,577.51,52.69ZM570,120.42v-59H585.3v59Z"/><path class="cls-2" d="M649.93,74.69v40c0,16-6.41,31.17-31.17,31.17-6.07,0-11.91-.58-21.77-4.59l3.9-11.92c4.7,2.64,11,4.59,15.93,4.59,17,0,17.76-12.72,17.76-22.92h-.23c-2.87,5-9.63,9.4-18.34,9.4-17.41,0-24.06-13.87-24.06-29.8,0-14.21,7.33-30.59,25-30.59,7.79,0,13.87,2.52,18.11,9.39h.23V66.1a40.13,40.13,0,0,1,.68-4.58h14.79A92.26,92.26,0,0,0,649.93,74.69Zm-28.19-2.75c-10.42,0-13.75,9.63-13.75,18.68,0,8,4.24,17.88,13.07,17.88,9.62,0,13.52-8.48,13.52-18.22C634.58,80.19,630.68,71.94,621.74,71.94Z"/><path class="cls-2" d="M698.87,120.42V88.9c0-7.22-.12-17-10-17-11,0-13.52,12-13.52,19.6v28.88H660.13V70.91a67.79,67.79,0,0,0-.8-9.51h14.33l.68,4.59v3.66h.23c4.93-7.33,11.81-9.62,19.6-9.62,14.09,0,20.05,9.74,20.05,23.14v37.25Z"/><path class="cls-2" d="M741.38,112.17a8.94,8.94,0,1,1-8.94-8.94A8.87,8.87,0,0,1,741.38,112.17Z"/><polygon class="cls-3" points="77.42 0 0 77.42 77.42 155.12 154.57 77.42 106.63 29.21 58.55 77.42 77.15 96.43 105.39 68.06 114.89 77.42 77.15 115.17 39.68 77.42 97.26 20.11 77.42 0"/></svg>