<?xml version="1.0" encoding="UTF-8"?>
<svg xmlns="http://www.w3.org/2000/svg" xmlns:xlink="http://www.w3.org/1999/xlink" version="1.1" width="512" height="512" x="0" y="0" viewBox="0 0 512 512" style="enable-background:new 0 0 512 512" xml:space="preserve" class="">
  <g>
    <path d="M158.5 202.501V187.5c0-16.5 14.346-24.782 30-30l45-14.999L256 165l22.5-22.5 45 14.999c15.653 5.217 30 13.503 30 30V255h-195v-37.5M233.5 142.501v-28.572m45 0v28.572M256 7.5c24.75 0 45 20.25 45 45V75c0 24.75-20.25 45-45 45s-45-20.25-45-45V52.5c0-24.75 20.249-45 45-45z" style="fill-rule:evenodd;clip-rule:evenodd;stroke-width:15.0001;stroke-miterlimit:22.9256;" fill-rule="evenodd" clip-rule="evenodd" fill="none" stroke="#009fe3" stroke-width="15.0001" stroke-miterlimit="22.9256" data-original="#000000" opacity="1" class=""></path>
    <path d="M211 75c0-8.25 6.75-15 15-15h60c8.25 0 15 6.75 15 15M256 165l-25.765 24.155L211 150M256 165l25.765 24.155L300.999 150M323.5 202.501v-15m0 45v-15M7.5 369.5H150v120c0 8.249-6.751 15-15 15H22.5c-8.249 0-15-6.75-15-15v-120zM41.25 437h75m-75-30h75m-75 59.999h75M184.75 369.5h142.5v120c0 8.249-6.751 15-15 15H199.749c-8.249 0-15-6.75-15-15v-120zM218.5 437h75m-75-30h75m-75 59.999h75M440.75 504.5h-15m-15.001 0h-33.75c-8.249 0-15-6.75-15-15v-120h142.5v120c0 8.249-6.751 15-15 15h-33.75M395.749 437h75m-75-30h75m-75 59.999h75M256 277.5V347M78.75 347v-34.75h354.499V347" style="fill-rule:evenodd;clip-rule:evenodd;stroke-width:15.0001;stroke-miterlimit:22.9256;" fill-rule="evenodd" clip-rule="evenodd" fill="none" stroke="#009fe3" stroke-width="15.0001" stroke-miterlimit="22.9256" data-original="#000000" opacity="1" class=""></path>
  </g>
</svg>
