<svg xmlns="http://www.w3.org/2000/svg" xmlns:xlink="http://www.w3.org/1999/xlink" width="512" height="512" x="0" y="0" viewBox="0 0 682.667 682.667" style="enable-background:new 0 0 512 512" xml:space="preserve" class="">  <g>    <defs>      <clipPath id="a">        <path d="M0 512h512V0H0Z" fill="#009fe3" opacity="1" data-original="#000000"></path>      </clipPath>    </defs>    <g clip-path="url(#a)" transform="matrix(1.33333 0 0 -1.33333 0 682.667)">      <path d="M0 0c77.859-77.86 77.859-204.095 0-281.955-77.86-77.859-204.095-77.859-281.955 0-77.859 77.86-77.859 204.095 0 281.955C-204.095 77.859-77.86 77.859 0 0Z" style="stroke-width:20;stroke-linecap:round;stroke-linejoin:round;stroke-miterlimit:10;stroke-dasharray:none;stroke-opacity:1" transform="translate(350.35 443.606)" fill="none" stroke="#009fe3" stroke-width="20" stroke-linecap="round" stroke-linejoin="round" stroke-miterlimit="10" stroke-dasharray="none" stroke-opacity="" data-original="#000000" opacity="1"></path>      <path d="M0 0c-59.802-59.802-157.106-59.802-216.908 0-59.801 59.801-59.801 157.106 0 216.908 59.802 59.801 157.106 59.801 216.908-.001C59.801 157.106 59.801 59.801 0 0Z" style="stroke-width:20;stroke-linecap:round;stroke-linejoin:round;stroke-miterlimit:10;stroke-dasharray:none;stroke-opacity:1" transform="translate(317.826 194.174)" fill="none" stroke="#009fe3" stroke-width="20" stroke-linecap="round" stroke-linejoin="round" stroke-miterlimit="10" stroke-dasharray="none" stroke-opacity="" data-original="#000000" opacity="1"></path>      <path d="M0 0c-42.837 42.837-42.837 112.538 0 155.375" style="stroke-width:20;stroke-linecap:round;stroke-linejoin:round;stroke-miterlimit:10;stroke-dasharray:none;stroke-opacity:1" transform="translate(131.685 224.94)" fill="none" stroke="#009fe3" stroke-width="20" stroke-linecap="round" stroke-linejoin="round" stroke-miterlimit="10" stroke-dasharray="none" stroke-opacity="" data-original="#000000" opacity="1"></path>      <path d="m0 0 121.224-121.224c11.882-11.882 11.882-31.147 0-43.029-11.882-11.883-31.147-11.883-43.029 0L-43.029-43.029" style="stroke-width:20;stroke-linecap:round;stroke-linejoin:round;stroke-miterlimit:10;stroke-dasharray:none;stroke-opacity:1" transform="translate(371.864 183.165)" fill="none" stroke="#009fe3" stroke-width="20" stroke-linecap="round" stroke-linejoin="round" stroke-miterlimit="10" stroke-dasharray="none" stroke-opacity="" data-original="#000000" opacity="1"></path>      <path d="m0 0 40.749 40.749" style="stroke-width:20;stroke-linecap:round;stroke-linejoin:round;stroke-miterlimit:10;stroke-dasharray:none;stroke-opacity:1" transform="translate(374.703 96.548)" fill="none" stroke="#009fe3" stroke-width="20" stroke-linecap="round" stroke-linejoin="round" stroke-miterlimit="10" stroke-dasharray="none" stroke-opacity="" data-original="#000000" opacity="1"></path>    </g>  </g></svg>