<svg xmlns="http://www.w3.org/2000/svg" xmlns:xlink="http://www.w3.org/1999/xlink" width="512" height="512" x="0" y="0" viewBox="0 0 25 25" style="enable-background:new 0 0 512 512" xml:space="preserve">  <g>    <g data-name="Layer 14">      <path d="M12.5 12a5 5 0 1 0-5-5 5 5 0 0 0 5 5zm0-9a4 4 0 1 1-4 4 4 4 0 0 1 4-4zM13.56 13h-2.12A9.47 9.47 0 0 0 2 22.5a.5.5 0 0 0 .5.5h20a.55.55 0 0 0 .5-.56A9.46 9.46 0 0 0 13.56 13zM3 22a8.46 8.46 0 0 1 8.43-8h2.12A8.46 8.46 0 0 1 22 22z" fill="#000000" opacity="1" data-original="#000000"></path>    </g>  </g></svg>