<?xml version="1.0" encoding="UTF-8"?>
<svg xmlns="http://www.w3.org/2000/svg" xmlns:xlink="http://www.w3.org/1999/xlink" version="1.1" width="512" height="512" x="0" y="0" viewBox="0 0 682.667 682.667" style="enable-background:new 0 0 512 512" xml:space="preserve">
  <g>
    <defs>
      <clipPath id="a">
        <path d="M0 512h512V0H0Z" fill="#009fe3" opacity="1" data-original="#000000"></path>
      </clipPath>
    </defs>
    <g clip-path="url(#a)" transform="matrix(1.33333 0 0 -1.33333 0 682.667)">
      <path d="M0 0c12.253-1.159 21.571-11.575 21.571-23.883v-9.177c0-44.272-35.889-80.161-80.161-80.161s-80.161 35.889-80.161 80.161v17.408a54.734 54.734 0 0 0 16.032 38.705" style="stroke-width:15;stroke-linecap:round;stroke-linejoin:round;stroke-miterlimit:10;stroke-dasharray:none;stroke-opacity:1" transform="translate(314.59 321.124)" fill="none" stroke="#009fe3" stroke-width="15" stroke-linecap="round" stroke-linejoin="round" stroke-miterlimit="10" stroke-dasharray="none" stroke-opacity="" data-original="#000000" opacity="1"></path>
      <path d="M0 0s22.15-60.912 98.667-81.483" style="stroke-width:15;stroke-linecap:round;stroke-linejoin:round;stroke-miterlimit:10;stroke-dasharray:none;stroke-opacity:1" transform="translate(183.855 408.306)" fill="none" stroke="#009fe3" stroke-width="15" stroke-linecap="round" stroke-linejoin="round" stroke-miterlimit="10" stroke-dasharray="none" stroke-opacity="" data-original="#000000" opacity="1"></path>
      <path d="M0 0v-32.667a24.05 24.05 0 0 0-16.444-22.815l-57.825-19.275a32.064 32.064 0 0 1-21.925-30.419v-73.083" style="stroke-width:15;stroke-linecap:round;stroke-linejoin:round;stroke-miterlimit:10;stroke-dasharray:none;stroke-opacity:1" transform="translate(215.92 217.823)" fill="none" stroke="#009fe3" stroke-width="15" stroke-linecap="round" stroke-linejoin="round" stroke-miterlimit="10" stroke-dasharray="none" stroke-opacity="" data-original="#000000" opacity="1"></path>
      <path d="M0 0v73.083a32.066 32.066 0 0 1-21.925 30.419l-57.825 19.275a24.048 24.048 0 0 0-16.444 22.814v32.668" style="stroke-width:15;stroke-linecap:round;stroke-linejoin:round;stroke-miterlimit:10;stroke-dasharray:none;stroke-opacity:1" transform="translate(392.274 39.565)" fill="none" stroke="#009fe3" stroke-width="15" stroke-linecap="round" stroke-linejoin="round" stroke-miterlimit="10" stroke-dasharray="none" stroke-opacity="" data-original="#000000" opacity="1"></path>
      <path d="M0 0c19.467 14.625 32.059 37.907 32.059 64.13v.001c0 44.271-35.89 80.161-80.162 80.161h-64.128c-44.272 0-80.162-35.89-80.162-80.161v-.001c0-26.225 12.594-49.509 32.063-64.133" style="stroke-width:15;stroke-linecap:round;stroke-linejoin:round;stroke-miterlimit:10;stroke-dasharray:none;stroke-opacity:1" transform="translate(336.167 280.047)" fill="none" stroke="#009fe3" stroke-width="15" stroke-linecap="round" stroke-linejoin="round" stroke-miterlimit="10" stroke-dasharray="none" stroke-opacity="" data-original="#000000" opacity="1"></path>
      <path d="M0 0c-3.89 27.193-27.276 48.096-55.544 48.096-28.269 0-51.655-20.903-55.545-48.096" style="stroke-width:15;stroke-linecap:round;stroke-linejoin:round;stroke-miterlimit:10;stroke-dasharray:none;stroke-opacity:1" transform="translate(311.544 424.34)" fill="none" stroke="#009fe3" stroke-width="15" stroke-linecap="round" stroke-linejoin="round" stroke-miterlimit="10" stroke-dasharray="none" stroke-opacity="" data-original="#000000" opacity="1"></path>
      <path d="m0 0 48.097-45.213L96.193 0" style="stroke-width:15;stroke-linecap:round;stroke-linejoin:round;stroke-miterlimit:10;stroke-dasharray:none;stroke-opacity:1" transform="translate(207.903 164.939)" fill="none" stroke="#009fe3" stroke-width="15" stroke-linecap="round" stroke-linejoin="round" stroke-miterlimit="10" stroke-dasharray="none" stroke-opacity="" data-original="#000000" opacity="1"></path>
      <path d="m0 0 24.048-120.242" style="stroke-width:15;stroke-linecap:round;stroke-linejoin:round;stroke-miterlimit:10;stroke-dasharray:none;stroke-opacity:1" transform="translate(207.903 159.806)" fill="none" stroke="#009fe3" stroke-width="15" stroke-linecap="round" stroke-linejoin="round" stroke-miterlimit="10" stroke-dasharray="none" stroke-opacity="" data-original="#000000" opacity="1"></path>
      <path d="m0 0-24.048-120.242" style="stroke-width:15;stroke-linecap:round;stroke-linejoin:round;stroke-miterlimit:10;stroke-dasharray:none;stroke-opacity:1" transform="translate(304.097 159.806)" fill="none" stroke="#009fe3" stroke-width="15" stroke-linecap="round" stroke-linejoin="round" stroke-miterlimit="10" stroke-dasharray="none" stroke-opacity="" data-original="#000000" opacity="1"></path>
      <path d="m0 0-36.496 72.991a16.038 16.038 0 0 0 0 14.34l12.448 24.895" style="stroke-width:15;stroke-linecap:round;stroke-linejoin:round;stroke-miterlimit:10;stroke-dasharray:none;stroke-opacity:1" transform="translate(199.887 39.565)" fill="none" stroke="#009fe3" stroke-width="15" stroke-linecap="round" stroke-linejoin="round" stroke-miterlimit="10" stroke-dasharray="none" stroke-opacity="" data-original="#000000" opacity="1"></path>
      <path d="m0 0 36.496 72.991a16.038 16.038 0 0 1 0 14.34l-12.448 24.895" style="stroke-width:15;stroke-linecap:round;stroke-linejoin:round;stroke-miterlimit:10;stroke-dasharray:none;stroke-opacity:1" transform="translate(312.113 39.565)" fill="none" stroke="#009fe3" stroke-width="15" stroke-linecap="round" stroke-linejoin="round" stroke-miterlimit="10" stroke-dasharray="none" stroke-opacity="" data-original="#000000" opacity="1"></path>
      <path d="M0 0v-18.314a16.033 16.033 0 0 0-10.962-15.21L-50.22-46.61a32.064 32.064 0 0 1-21.925-30.419v-49.034" style="stroke-width:15;stroke-linecap:round;stroke-linejoin:round;stroke-miterlimit:10;stroke-dasharray:none;stroke-opacity:1" transform="translate(79.645 165.628)" fill="none" stroke="#009fe3" stroke-width="15" stroke-linecap="round" stroke-linejoin="round" stroke-miterlimit="10" stroke-dasharray="none" stroke-opacity="" data-original="#000000" opacity="1"></path>
      <path d="m0 0 24.048 16.032L96.194-8.016v-8.016c0-26.563-21.534-48.097-48.097-48.097C21.534-64.129 0-42.595 0-16.032Z" style="stroke-width:15;stroke-linecap:round;stroke-linejoin:round;stroke-miterlimit:10;stroke-dasharray:none;stroke-opacity:1" transform="translate(55.597 223.935)" fill="none" stroke="#009fe3" stroke-width="15" stroke-linecap="round" stroke-linejoin="round" stroke-miterlimit="10" stroke-dasharray="none" stroke-opacity="" data-original="#000000" opacity="1"></path>
      <path d="M0 0v0a27.372 27.372 0 0 0-8.016 19.353v4.695c0 22.136 17.945 40.081 40.08 40.081h32.065c22.136 0 40.081-17.945 40.081-40.081v-4.695c0-7.259-2.884-14.22-8.016-19.353" style="stroke-width:15;stroke-linecap:round;stroke-linejoin:round;stroke-miterlimit:10;stroke-dasharray:none;stroke-opacity:1" transform="translate(55.597 215.92)" fill="none" stroke="#009fe3" stroke-width="15" stroke-linecap="round" stroke-linejoin="round" stroke-miterlimit="10" stroke-dasharray="none" stroke-opacity="" data-original="#000000" opacity="1"></path>
      <path d="m0 0 24.048-16.032" style="stroke-width:15;stroke-linecap:round;stroke-linejoin:round;stroke-miterlimit:10;stroke-dasharray:none;stroke-opacity:1" transform="translate(63.613 127.742)" fill="none" stroke="#009fe3" stroke-width="15" stroke-linecap="round" stroke-linejoin="round" stroke-miterlimit="10" stroke-dasharray="none" stroke-opacity="" data-original="#000000" opacity="1"></path>
      <path d="M0 0v-32.065" style="stroke-width:15;stroke-linecap:round;stroke-linejoin:round;stroke-miterlimit:10;stroke-dasharray:none;stroke-opacity:1" transform="translate(47.58 71.63)" fill="none" stroke="#009fe3" stroke-width="15" stroke-linecap="round" stroke-linejoin="round" stroke-miterlimit="10" stroke-dasharray="none" stroke-opacity="" data-original="#000000" opacity="1"></path>
      <path d="M0 0v-18.314a16.033 16.033 0 0 1 10.962-15.21L50.22-46.61a32.064 32.064 0 0 0 21.925-30.419v-49.034" style="stroke-width:15;stroke-linecap:round;stroke-linejoin:round;stroke-miterlimit:10;stroke-dasharray:none;stroke-opacity:1" transform="translate(432.355 165.628)" fill="none" stroke="#009fe3" stroke-width="15" stroke-linecap="round" stroke-linejoin="round" stroke-miterlimit="10" stroke-dasharray="none" stroke-opacity="" data-original="#000000" opacity="1"></path>
      <path d="m0 0 24.049 16.032L96.194-8.016v-8.016c0-26.563-21.534-48.097-48.097-48.097C21.534-64.129 0-42.595 0-16.032Z" style="stroke-width:15;stroke-linecap:round;stroke-linejoin:round;stroke-miterlimit:10;stroke-dasharray:none;stroke-opacity:1" transform="translate(360.21 223.935)" fill="none" stroke="#009fe3" stroke-width="15" stroke-linecap="round" stroke-linejoin="round" stroke-miterlimit="10" stroke-dasharray="none" stroke-opacity="" data-original="#000000" opacity="1"></path>
      <path d="M0 0v0a27.372 27.372 0 0 0-8.016 19.353v4.695c0 22.136 17.945 40.081 40.081 40.081h32.064c22.136 0 40.081-17.945 40.081-40.081v-4.695c0-7.259-2.884-14.22-8.016-19.353" style="stroke-width:15;stroke-linecap:round;stroke-linejoin:round;stroke-miterlimit:10;stroke-dasharray:none;stroke-opacity:1" transform="translate(360.21 215.92)" fill="none" stroke="#009fe3" stroke-width="15" stroke-linecap="round" stroke-linejoin="round" stroke-miterlimit="10" stroke-dasharray="none" stroke-opacity="" data-original="#000000" opacity="1"></path>
      <path d="m0 0-24.048-16.032" style="stroke-width:15;stroke-linecap:round;stroke-linejoin:round;stroke-miterlimit:10;stroke-dasharray:none;stroke-opacity:1" transform="translate(448.387 127.742)" fill="none" stroke="#009fe3" stroke-width="15" stroke-linecap="round" stroke-linejoin="round" stroke-miterlimit="10" stroke-dasharray="none" stroke-opacity="" data-original="#000000" opacity="1"></path>
      <path d="M0 0v-32.065" style="stroke-width:15;stroke-linecap:round;stroke-linejoin:round;stroke-miterlimit:10;stroke-dasharray:none;stroke-opacity:1" transform="translate(464.42 71.63)" fill="none" stroke="#009fe3" stroke-width="15" stroke-linecap="round" stroke-linejoin="round" stroke-miterlimit="10" stroke-dasharray="none" stroke-opacity="" data-original="#000000" opacity="1"></path>
    </g>
  </g>
</svg>
