<svg width="244" height="58" viewBox="0 0 244 58" fill="none" xmlns="http://www.w3.org/2000/svg">
<rect width="65" height="58" rx="5" fill="#F8C61D" fill-opacity="0.3"/>
<rect x="4" y="4" width="57" height="50" rx="3" fill="#F8C61D"/>
<rect x="7" y="7" width="51" height="11" rx="3" fill="white" fill-opacity="0.5"/>
<rect x="7.5" y="7.5" width="50" height="10" rx="2.5" stroke="#343434" stroke-opacity="0.42" stroke-dasharray="2 2"/>
<rect x="7" y="40" width="51" height="11" rx="3" fill="white" fill-opacity="0.5"/>
<rect x="7.5" y="40.5" width="50" height="10" rx="2.5" stroke="#343434" stroke-opacity="0.42" stroke-dasharray="2 2"/>
<rect x="7" y="21" width="51" height="16" rx="3" fill="white" fill-opacity="0.5"/>
<rect x="7.5" y="21.5" width="50" height="15" rx="2.5" stroke="#343434" stroke-opacity="0.42" stroke-dasharray="2 2"/>
<path d="M13.7707 14.139L10.1431 12.5822V12.0031L13.7707 10.4459V11.3465L11.5063 12.2924L13.7707 13.238V14.139ZM16.1098 14.4643H15.0734L17.1358 10H18.1794L16.1098 14.4643ZM19.1821 14.1378V13.2376L21.4623 12.2924L19.1821 11.3472V10.4467L22.8097 11.997V12.5878L19.1821 14.1378Z" fill="#767676"/>
<path d="M13.7707 47.139L10.1431 45.5822V45.0031L13.7707 43.4459V44.3465L11.5063 45.2924L13.7707 46.238V47.139ZM16.1098 47.4643H15.0734L17.1358 43H18.1794L16.1098 47.4643ZM19.1821 47.1378V46.2376L21.4623 45.2924L19.1821 44.3472V43.4467L22.8097 44.997V45.5878L19.1821 47.1378Z" fill="#767676"/>
<path d="M13.7707 31.3532L10.1431 29.7964V29.2173L13.7707 27.6601V28.5607L11.5063 29.5067L13.7707 30.4523V31.3532ZM16.1098 31.6785H15.0734L17.1358 27.2142H18.1794L16.1098 31.6785ZM19.1821 31.3521V30.4519L21.4623 29.5067L19.1821 28.5615V27.6609L22.8097 29.2113V29.8021L19.1821 31.3521Z" fill="#767676"/>
<path d="M82.388 23H79.148V5.648H82.388V23ZM86.1309 23V10.688H87.9429C88.3269 10.688 88.5789 10.868 88.6989 11.228L88.9029 12.2C89.1509 11.944 89.4109 11.712 89.6829 11.504C89.9629 11.296 90.2549 11.116 90.5589 10.964C90.8709 10.812 91.2029 10.696 91.5549 10.616C91.9069 10.536 92.2909 10.496 92.7069 10.496C93.3789 10.496 93.9749 10.612 94.4949 10.844C95.0149 11.068 95.4469 11.388 95.7909 11.804C96.1429 12.212 96.4069 12.704 96.5829 13.28C96.7669 13.848 96.8589 14.476 96.8589 15.164V23H93.8949V15.164C93.8949 14.412 93.7189 13.832 93.3669 13.424C93.0229 13.008 92.5029 12.8 91.8069 12.8C91.2949 12.8 90.8149 12.916 90.3669 13.148C89.9189 13.38 89.4949 13.696 89.0949 14.096V23H86.1309ZM107.08 13.088C107 13.216 106.916 13.308 106.828 13.364C106.74 13.412 106.628 13.436 106.492 13.436C106.348 13.436 106.192 13.396 106.024 13.316C105.864 13.236 105.676 13.148 105.46 13.052C105.244 12.948 104.996 12.856 104.716 12.776C104.444 12.696 104.12 12.656 103.744 12.656C103.16 12.656 102.7 12.78 102.364 13.028C102.028 13.276 101.86 13.6 101.86 14C101.86 14.264 101.944 14.488 102.112 14.672C102.288 14.848 102.516 15.004 102.796 15.14C103.084 15.276 103.408 15.4 103.768 15.512C104.128 15.616 104.496 15.732 104.872 15.86C105.248 15.988 105.616 16.136 105.976 16.304C106.336 16.464 106.656 16.672 106.936 16.928C107.224 17.176 107.452 17.476 107.62 17.828C107.796 18.18 107.884 18.604 107.884 19.1C107.884 19.692 107.776 20.24 107.56 20.744C107.344 21.24 107.028 21.672 106.612 22.04C106.196 22.4 105.68 22.684 105.064 22.892C104.456 23.092 103.756 23.192 102.964 23.192C102.54 23.192 102.124 23.152 101.715 23.072C101.316 23 100.928 22.896 100.552 22.76C100.184 22.624 99.8395 22.464 99.5195 22.28C99.2075 22.096 98.9315 21.896 98.6915 21.68L99.3755 20.552C99.4635 20.416 99.5675 20.312 99.6875 20.24C99.8075 20.168 99.9595 20.132 100.144 20.132C100.328 20.132 100.5 20.184 100.66 20.288C100.828 20.392 101.02 20.504 101.236 20.624C101.452 20.744 101.704 20.856 101.992 20.96C102.288 21.064 102.66 21.116 103.108 21.116C103.46 21.116 103.76 21.076 104.008 20.996C104.264 20.908 104.472 20.796 104.632 20.66C104.8 20.524 104.92 20.368 104.992 20.192C105.072 20.008 105.112 19.82 105.112 19.628C105.112 19.34 105.024 19.104 104.848 18.92C104.68 18.736 104.452 18.576 104.164 18.44C103.884 18.304 103.56 18.184 103.192 18.08C102.832 17.968 102.46 17.848 102.076 17.72C101.7 17.592 101.328 17.444 100.96 17.276C100.6 17.1 100.276 16.88 99.9875 16.616C99.7075 16.352 99.4795 16.028 99.3035 15.644C99.1355 15.26 99.0515 14.796 99.0515 14.252C99.0515 13.748 99.1515 13.268 99.3515 12.812C99.5515 12.356 99.8435 11.96 100.228 11.624C100.62 11.28 101.104 11.008 101.68 10.808C102.264 10.6 102.936 10.496 103.696 10.496C104.544 10.496 105.316 10.636 106.012 10.916C106.708 11.196 107.288 11.564 107.752 12.02L107.08 13.088ZM115.336 10.496C116.112 10.496 116.824 10.62 117.472 10.868C118.128 11.116 118.692 11.48 119.164 11.96C119.636 12.432 120.004 13.016 120.268 13.712C120.532 14.4 120.664 15.188 120.664 16.076C120.664 16.3 120.652 16.488 120.628 16.64C120.612 16.784 120.576 16.9 120.52 16.988C120.472 17.068 120.404 17.128 120.316 17.168C120.228 17.2 120.116 17.216 119.98 17.216H112.372C112.46 18.48 112.8 19.408 113.392 20C113.984 20.592 114.768 20.888 115.744 20.888C116.224 20.888 116.636 20.832 116.98 20.72C117.332 20.608 117.636 20.484 117.892 20.348C118.156 20.212 118.384 20.088 118.576 19.976C118.776 19.864 118.968 19.808 119.152 19.808C119.272 19.808 119.376 19.832 119.464 19.88C119.552 19.928 119.628 19.996 119.692 20.084L120.556 21.164C120.228 21.548 119.86 21.872 119.452 22.136C119.044 22.392 118.616 22.6 118.168 22.76C117.728 22.912 117.276 23.02 116.812 23.084C116.356 23.148 115.912 23.18 115.48 23.18C114.624 23.18 113.828 23.04 113.092 22.76C112.356 22.472 111.716 22.052 111.172 21.5C110.628 20.94 110.2 20.252 109.888 19.436C109.576 18.612 109.42 17.66 109.42 16.58C109.42 15.74 109.556 14.952 109.828 14.216C110.1 13.472 110.488 12.828 110.992 12.284C111.504 11.732 112.124 11.296 112.852 10.976C113.588 10.656 114.416 10.496 115.336 10.496ZM115.396 12.62C114.532 12.62 113.856 12.864 113.368 13.352C112.88 13.84 112.568 14.532 112.432 15.428H118C118 15.044 117.948 14.684 117.844 14.348C117.74 14.004 117.58 13.704 117.364 13.448C117.148 13.192 116.876 12.992 116.548 12.848C116.22 12.696 115.836 12.62 115.396 12.62ZM123.068 23V10.688H124.808C125.112 10.688 125.324 10.744 125.444 10.856C125.564 10.968 125.644 11.16 125.684 11.432L125.864 12.92C126.304 12.16 126.82 11.56 127.412 11.12C128.004 10.68 128.668 10.46 129.404 10.46C130.012 10.46 130.516 10.6 130.916 10.88L130.532 13.1C130.508 13.244 130.456 13.348 130.376 13.412C130.296 13.468 130.188 13.496 130.052 13.496C129.932 13.496 129.768 13.468 129.56 13.412C129.352 13.356 129.076 13.328 128.732 13.328C128.116 13.328 127.588 13.5 127.148 13.844C126.708 14.18 126.336 14.676 126.032 15.332V23H123.068ZM136.909 23.192C135.845 23.192 135.025 22.892 134.449 22.292C133.873 21.684 133.585 20.848 133.585 19.784V12.908H132.337C132.177 12.908 132.037 12.856 131.917 12.752C131.805 12.648 131.749 12.492 131.749 12.284V11.108L133.729 10.784L134.353 7.424C134.385 7.264 134.457 7.14 134.569 7.052C134.689 6.964 134.837 6.92 135.013 6.92H136.549V10.796H139.789V12.908H136.549V19.58C136.549 19.964 136.645 20.264 136.837 20.48C137.029 20.696 137.285 20.804 137.605 20.804C137.789 20.804 137.941 20.784 138.061 20.744C138.189 20.696 138.297 20.648 138.385 20.6C138.481 20.552 138.565 20.508 138.637 20.468C138.709 20.42 138.781 20.396 138.853 20.396C138.941 20.396 139.013 20.42 139.069 20.468C139.125 20.508 139.185 20.572 139.249 20.66L140.137 22.1C139.705 22.46 139.209 22.732 138.649 22.916C138.089 23.1 137.509 23.192 136.909 23.192ZM89.294 49H86.855V43.312H80.753V49H78.314V35.986H80.753V41.584H86.855V35.986H89.294V49ZM95.6095 39.622C96.1915 39.622 96.7255 39.715 97.2115 39.901C97.7035 40.087 98.1265 40.36 98.4805 40.72C98.8345 41.074 99.1105 41.512 99.3085 42.034C99.5065 42.55 99.6055 43.141 99.6055 43.807C99.6055 43.975 99.5965 44.116 99.5785 44.23C99.5665 44.338 99.5395 44.425 99.4975 44.491C99.4615 44.551 99.4105 44.596 99.3445 44.626C99.2785 44.65 99.1945 44.662 99.0925 44.662H93.3865C93.4525 45.61 93.7075 46.306 94.1515 46.75C94.5955 47.194 95.1835 47.416 95.9155 47.416C96.2755 47.416 96.5845 47.374 96.8425 47.29C97.1065 47.206 97.3345 47.113 97.5265 47.011C97.7245 46.909 97.8955 46.816 98.0395 46.732C98.1895 46.648 98.3335 46.606 98.4715 46.606C98.5615 46.606 98.6395 46.624 98.7055 46.66C98.7715 46.696 98.8285 46.747 98.8765 46.813L99.5245 47.623C99.2785 47.911 99.0025 48.154 98.6965 48.352C98.3905 48.544 98.0695 48.7 97.7335 48.82C97.4035 48.934 97.0645 49.015 96.7165 49.063C96.3745 49.111 96.0415 49.135 95.7175 49.135C95.0755 49.135 94.4785 49.03 93.9265 48.82C93.3745 48.604 92.8945 48.289 92.4865 47.875C92.0785 47.455 91.7575 46.939 91.5235 46.327C91.2895 45.709 91.1725 44.995 91.1725 44.185C91.1725 43.555 91.2745 42.964 91.4785 42.412C91.6825 41.854 91.9735 41.371 92.3515 40.963C92.7355 40.549 93.2005 40.222 93.7465 39.982C94.2985 39.742 94.9195 39.622 95.6095 39.622ZM95.6545 41.215C95.0065 41.215 94.4995 41.398 94.1335 41.764C93.7675 42.13 93.5335 42.649 93.4315 43.321H97.6075C97.6075 43.033 97.5685 42.763 97.4905 42.511C97.4125 42.253 97.2925 42.028 97.1305 41.836C96.9685 41.644 96.7645 41.494 96.5185 41.386C96.2725 41.272 95.9845 41.215 95.6545 41.215ZM108.645 49H107.646C107.436 49 107.271 48.97 107.151 48.91C107.031 48.844 106.941 48.715 106.881 48.523L106.683 47.866C106.449 48.076 106.218 48.262 105.99 48.424C105.768 48.58 105.537 48.712 105.297 48.82C105.057 48.928 104.802 49.009 104.532 49.063C104.262 49.117 103.962 49.144 103.632 49.144C103.242 49.144 102.882 49.093 102.552 48.991C102.222 48.883 101.937 48.724 101.697 48.514C101.463 48.304 101.28 48.043 101.148 47.731C101.016 47.419 100.95 47.056 100.95 46.642C100.95 46.294 101.04 45.952 101.22 45.616C101.406 45.274 101.712 44.968 102.138 44.698C102.564 44.422 103.131 44.194 103.839 44.014C104.547 43.834 105.426 43.732 106.476 43.708V43.168C106.476 42.55 106.344 42.094 106.08 41.8C105.822 41.5 105.444 41.35 104.946 41.35C104.586 41.35 104.286 41.392 104.046 41.476C103.806 41.56 103.596 41.656 103.416 41.764C103.242 41.866 103.08 41.959 102.93 42.043C102.78 42.127 102.615 42.169 102.435 42.169C102.285 42.169 102.156 42.13 102.048 42.052C101.94 41.974 101.853 41.878 101.787 41.764L101.382 41.053C102.444 40.081 103.725 39.595 105.225 39.595C105.765 39.595 106.245 39.685 106.665 39.865C107.091 40.039 107.451 40.285 107.745 40.603C108.039 40.915 108.261 41.29 108.411 41.728C108.567 42.166 108.645 42.646 108.645 43.168V49ZM104.325 47.614C104.553 47.614 104.763 47.593 104.955 47.551C105.147 47.509 105.327 47.446 105.495 47.362C105.669 47.278 105.834 47.176 105.99 47.056C106.152 46.93 106.314 46.783 106.476 46.615V45.058C105.828 45.088 105.285 45.145 104.847 45.229C104.415 45.307 104.067 45.409 103.803 45.535C103.539 45.661 103.35 45.808 103.236 45.976C103.128 46.144 103.074 46.327 103.074 46.525C103.074 46.915 103.188 47.194 103.416 47.362C103.65 47.53 103.953 47.614 104.325 47.614ZM117.329 49C117.041 49 116.852 48.865 116.762 48.595L116.582 47.704C116.39 47.92 116.189 48.115 115.979 48.289C115.769 48.463 115.541 48.613 115.295 48.739C115.055 48.865 114.794 48.961 114.512 49.027C114.236 49.099 113.936 49.135 113.612 49.135C113.108 49.135 112.646 49.03 112.226 48.82C111.806 48.61 111.443 48.307 111.137 47.911C110.837 47.509 110.603 47.014 110.435 46.426C110.273 45.838 110.192 45.166 110.192 44.41C110.192 43.726 110.285 43.09 110.471 42.502C110.657 41.914 110.924 41.404 111.272 40.972C111.62 40.54 112.037 40.204 112.523 39.964C113.009 39.718 113.555 39.595 114.161 39.595C114.677 39.595 115.118 39.679 115.484 39.847C115.85 40.009 116.177 40.228 116.465 40.504V35.626H118.688V49H117.329ZM114.368 47.371C114.83 47.371 115.223 47.275 115.547 47.083C115.871 46.891 116.177 46.618 116.465 46.264V42.124C116.213 41.818 115.937 41.602 115.637 41.476C115.343 41.35 115.025 41.287 114.683 41.287C114.347 41.287 114.041 41.35 113.765 41.476C113.495 41.602 113.264 41.794 113.072 42.052C112.886 42.304 112.742 42.628 112.64 43.024C112.538 43.414 112.487 43.876 112.487 44.41C112.487 44.95 112.529 45.409 112.613 45.787C112.703 46.159 112.829 46.465 112.991 46.705C113.153 46.939 113.351 47.11 113.585 47.218C113.819 47.32 114.08 47.371 114.368 47.371ZM124.912 39.622C125.494 39.622 126.028 39.715 126.514 39.901C127.006 40.087 127.429 40.36 127.783 40.72C128.137 41.074 128.413 41.512 128.611 42.034C128.809 42.55 128.908 43.141 128.908 43.807C128.908 43.975 128.899 44.116 128.881 44.23C128.869 44.338 128.842 44.425 128.8 44.491C128.764 44.551 128.713 44.596 128.647 44.626C128.581 44.65 128.497 44.662 128.395 44.662H122.689C122.755 45.61 123.01 46.306 123.454 46.75C123.898 47.194 124.486 47.416 125.218 47.416C125.578 47.416 125.887 47.374 126.145 47.29C126.409 47.206 126.637 47.113 126.829 47.011C127.027 46.909 127.198 46.816 127.342 46.732C127.492 46.648 127.636 46.606 127.774 46.606C127.864 46.606 127.942 46.624 128.008 46.66C128.074 46.696 128.131 46.747 128.179 46.813L128.827 47.623C128.581 47.911 128.305 48.154 127.999 48.352C127.693 48.544 127.372 48.7 127.036 48.82C126.706 48.934 126.367 49.015 126.019 49.063C125.677 49.111 125.344 49.135 125.02 49.135C124.378 49.135 123.781 49.03 123.229 48.82C122.677 48.604 122.197 48.289 121.789 47.875C121.381 47.455 121.06 46.939 120.826 46.327C120.592 45.709 120.475 44.995 120.475 44.185C120.475 43.555 120.577 42.964 120.781 42.412C120.985 41.854 121.276 41.371 121.654 40.963C122.038 40.549 122.503 40.222 123.049 39.982C123.601 39.742 124.222 39.622 124.912 39.622ZM124.957 41.215C124.309 41.215 123.802 41.398 123.436 41.764C123.07 42.13 122.836 42.649 122.734 43.321H126.91C126.91 43.033 126.871 42.763 126.793 42.511C126.715 42.253 126.595 42.028 126.433 41.836C126.271 41.644 126.067 41.494 125.821 41.386C125.575 41.272 125.287 41.215 124.957 41.215ZM130.711 49V39.766H132.016C132.244 39.766 132.403 39.808 132.493 39.892C132.583 39.976 132.643 40.12 132.673 40.324L132.808 41.44C133.138 40.87 133.525 40.42 133.969 40.09C134.413 39.76 134.911 39.595 135.463 39.595C135.919 39.595 136.297 39.7 136.597 39.91L136.309 41.575C136.291 41.683 136.252 41.761 136.192 41.809C136.132 41.851 136.051 41.872 135.949 41.872C135.859 41.872 135.736 41.851 135.58 41.809C135.424 41.767 135.217 41.746 134.959 41.746C134.497 41.746 134.101 41.875 133.771 42.133C133.441 42.385 133.162 42.757 132.934 43.249V49H130.711ZM143.54 41.566C143.48 41.662 143.417 41.731 143.351 41.773C143.285 41.809 143.201 41.827 143.099 41.827C142.991 41.827 142.874 41.797 142.748 41.737C142.628 41.677 142.487 41.611 142.325 41.539C142.163 41.461 141.977 41.392 141.767 41.332C141.563 41.272 141.32 41.242 141.038 41.242C140.6 41.242 140.255 41.335 140.003 41.521C139.751 41.707 139.625 41.95 139.625 42.25C139.625 42.448 139.688 42.616 139.814 42.754C139.946 42.886 140.117 43.003 140.327 43.105C140.543 43.207 140.786 43.3 141.056 43.384C141.326 43.462 141.602 43.549 141.884 43.645C142.166 43.741 142.442 43.852 142.712 43.978C142.982 44.098 143.222 44.254 143.432 44.446C143.648 44.632 143.819 44.857 143.945 45.121C144.077 45.385 144.143 45.703 144.143 46.075C144.143 46.519 144.062 46.93 143.9 47.308C143.738 47.68 143.501 48.004 143.189 48.28C142.877 48.55 142.49 48.763 142.028 48.919C141.572 49.069 141.047 49.144 140.453 49.144C140.135 49.144 139.823 49.114 139.517 49.054C139.217 49 138.926 48.922 138.644 48.82C138.368 48.718 138.11 48.598 137.87 48.46C137.636 48.322 137.429 48.172 137.249 48.01L137.762 47.164C137.828 47.062 137.906 46.984 137.996 46.93C138.086 46.876 138.2 46.849 138.338 46.849C138.476 46.849 138.605 46.888 138.725 46.966C138.851 47.044 138.995 47.128 139.157 47.218C139.319 47.308 139.508 47.392 139.724 47.47C139.946 47.548 140.225 47.587 140.561 47.587C140.825 47.587 141.05 47.557 141.236 47.497C141.428 47.431 141.584 47.347 141.704 47.245C141.83 47.143 141.92 47.026 141.974 46.894C142.034 46.756 142.064 46.615 142.064 46.471C142.064 46.255 141.998 46.078 141.866 45.94C141.74 45.802 141.569 45.682 141.353 45.58C141.143 45.478 140.9 45.388 140.624 45.31C140.354 45.226 140.075 45.136 139.787 45.04C139.505 44.944 139.226 44.833 138.95 44.707C138.68 44.575 138.437 44.41 138.221 44.212C138.011 44.014 137.84 43.771 137.708 43.483C137.582 43.195 137.519 42.847 137.519 42.439C137.519 42.061 137.594 41.701 137.744 41.359C137.894 41.017 138.113 40.72 138.401 40.468C138.695 40.21 139.058 40.006 139.49 39.856C139.928 39.7 140.432 39.622 141.002 39.622C141.638 39.622 142.217 39.727 142.739 39.937C143.261 40.147 143.696 40.423 144.044 40.765L143.54 41.566ZM156.633 49H155.634C155.424 49 155.259 48.97 155.139 48.91C155.019 48.844 154.929 48.715 154.869 48.523L154.671 47.866C154.437 48.076 154.206 48.262 153.978 48.424C153.756 48.58 153.525 48.712 153.285 48.82C153.045 48.928 152.79 49.009 152.52 49.063C152.25 49.117 151.95 49.144 151.62 49.144C151.23 49.144 150.87 49.093 150.54 48.991C150.21 48.883 149.925 48.724 149.685 48.514C149.451 48.304 149.268 48.043 149.136 47.731C149.004 47.419 148.938 47.056 148.938 46.642C148.938 46.294 149.028 45.952 149.208 45.616C149.394 45.274 149.7 44.968 150.126 44.698C150.552 44.422 151.119 44.194 151.827 44.014C152.535 43.834 153.414 43.732 154.464 43.708V43.168C154.464 42.55 154.332 42.094 154.068 41.8C153.81 41.5 153.432 41.35 152.934 41.35C152.574 41.35 152.274 41.392 152.034 41.476C151.794 41.56 151.584 41.656 151.404 41.764C151.23 41.866 151.068 41.959 150.918 42.043C150.768 42.127 150.603 42.169 150.423 42.169C150.273 42.169 150.144 42.13 150.036 42.052C149.928 41.974 149.841 41.878 149.775 41.764L149.37 41.053C150.432 40.081 151.713 39.595 153.213 39.595C153.753 39.595 154.233 39.685 154.653 39.865C155.079 40.039 155.439 40.285 155.733 40.603C156.027 40.915 156.249 41.29 156.399 41.728C156.555 42.166 156.633 42.646 156.633 43.168V49ZM152.313 47.614C152.541 47.614 152.751 47.593 152.943 47.551C153.135 47.509 153.315 47.446 153.483 47.362C153.657 47.278 153.822 47.176 153.978 47.056C154.14 46.93 154.302 46.783 154.464 46.615V45.058C153.816 45.088 153.273 45.145 152.835 45.229C152.403 45.307 152.055 45.409 151.791 45.535C151.527 45.661 151.338 45.808 151.224 45.976C151.116 46.144 151.062 46.327 151.062 46.525C151.062 46.915 151.176 47.194 151.404 47.362C151.638 47.53 151.941 47.614 152.313 47.614ZM158.819 49V39.766H160.178C160.466 39.766 160.655 39.901 160.745 40.171L160.898 40.9C161.084 40.708 161.279 40.534 161.483 40.378C161.693 40.222 161.912 40.087 162.14 39.973C162.374 39.859 162.623 39.772 162.887 39.712C163.151 39.652 163.439 39.622 163.751 39.622C164.255 39.622 164.702 39.709 165.092 39.883C165.482 40.051 165.806 40.291 166.064 40.603C166.328 40.909 166.526 41.278 166.658 41.71C166.796 42.136 166.865 42.607 166.865 43.123V49H164.642V43.123C164.642 42.559 164.51 42.124 164.246 41.818C163.988 41.506 163.598 41.35 163.076 41.35C162.692 41.35 162.332 41.437 161.996 41.611C161.66 41.785 161.342 42.022 161.042 42.322V49H158.819ZM175.547 49C175.259 49 175.07 48.865 174.98 48.595L174.8 47.704C174.608 47.92 174.407 48.115 174.197 48.289C173.987 48.463 173.759 48.613 173.513 48.739C173.273 48.865 173.012 48.961 172.73 49.027C172.454 49.099 172.154 49.135 171.83 49.135C171.326 49.135 170.864 49.03 170.444 48.82C170.024 48.61 169.661 48.307 169.355 47.911C169.055 47.509 168.821 47.014 168.653 46.426C168.491 45.838 168.41 45.166 168.41 44.41C168.41 43.726 168.503 43.09 168.689 42.502C168.875 41.914 169.142 41.404 169.49 40.972C169.838 40.54 170.255 40.204 170.741 39.964C171.227 39.718 171.773 39.595 172.379 39.595C172.895 39.595 173.336 39.679 173.702 39.847C174.068 40.009 174.395 40.228 174.683 40.504V35.626H176.906V49H175.547ZM172.586 47.371C173.048 47.371 173.441 47.275 173.765 47.083C174.089 46.891 174.395 46.618 174.683 46.264V42.124C174.431 41.818 174.155 41.602 173.855 41.476C173.561 41.35 173.243 41.287 172.901 41.287C172.565 41.287 172.259 41.35 171.983 41.476C171.713 41.602 171.482 41.794 171.29 42.052C171.104 42.304 170.96 42.628 170.858 43.024C170.756 43.414 170.705 43.876 170.705 44.41C170.705 44.95 170.747 45.409 170.831 45.787C170.921 46.159 171.047 46.465 171.209 46.705C171.371 46.939 171.569 47.11 171.803 47.218C172.037 47.32 172.298 47.371 172.586 47.371ZM191.129 35.986V37.912H185.36V41.764H190.229V43.699H185.36V49H182.921V35.986H191.129ZM196.265 39.622C196.955 39.622 197.579 39.733 198.137 39.955C198.701 40.177 199.181 40.492 199.577 40.9C199.973 41.308 200.279 41.806 200.495 42.394C200.711 42.982 200.819 43.639 200.819 44.365C200.819 45.097 200.711 45.757 200.495 46.345C200.279 46.933 199.973 47.434 199.577 47.848C199.181 48.262 198.701 48.58 198.137 48.802C197.579 49.024 196.955 49.135 196.265 49.135C195.575 49.135 194.948 49.024 194.384 48.802C193.82 48.58 193.337 48.262 192.935 47.848C192.539 47.434 192.23 46.933 192.008 46.345C191.792 45.757 191.684 45.097 191.684 44.365C191.684 43.639 191.792 42.982 192.008 42.394C192.23 41.806 192.539 41.308 192.935 40.9C193.337 40.492 193.82 40.177 194.384 39.955C194.948 39.733 195.575 39.622 196.265 39.622ZM196.265 47.425C197.033 47.425 197.6 47.167 197.966 46.651C198.338 46.135 198.524 45.379 198.524 44.383C198.524 43.387 198.338 42.628 197.966 42.106C197.6 41.584 197.033 41.323 196.265 41.323C195.485 41.323 194.909 41.587 194.537 42.115C194.165 42.637 193.979 43.393 193.979 44.383C193.979 45.373 194.165 46.129 194.537 46.651C194.909 47.167 195.485 47.425 196.265 47.425ZM206.495 39.622C207.185 39.622 207.809 39.733 208.367 39.955C208.931 40.177 209.411 40.492 209.807 40.9C210.203 41.308 210.509 41.806 210.725 42.394C210.941 42.982 211.049 43.639 211.049 44.365C211.049 45.097 210.941 45.757 210.725 46.345C210.509 46.933 210.203 47.434 209.807 47.848C209.411 48.262 208.931 48.58 208.367 48.802C207.809 49.024 207.185 49.135 206.495 49.135C205.805 49.135 205.178 49.024 204.614 48.802C204.05 48.58 203.567 48.262 203.165 47.848C202.769 47.434 202.46 46.933 202.238 46.345C202.022 45.757 201.914 45.097 201.914 44.365C201.914 43.639 202.022 42.982 202.238 42.394C202.46 41.806 202.769 41.308 203.165 40.9C203.567 40.492 204.05 40.177 204.614 39.955C205.178 39.733 205.805 39.622 206.495 39.622ZM206.495 47.425C207.263 47.425 207.83 47.167 208.196 46.651C208.568 46.135 208.754 45.379 208.754 44.383C208.754 43.387 208.568 42.628 208.196 42.106C207.83 41.584 207.263 41.323 206.495 41.323C205.715 41.323 205.139 41.587 204.767 42.115C204.395 42.637 204.209 43.393 204.209 44.383C204.209 45.373 204.395 46.129 204.767 46.651C205.139 47.167 205.715 47.425 206.495 47.425ZM215.817 49.144C215.019 49.144 214.404 48.919 213.972 48.469C213.54 48.013 213.324 47.386 213.324 46.588V41.431H212.388C212.268 41.431 212.163 41.392 212.073 41.314C211.989 41.236 211.947 41.119 211.947 40.963V40.081L213.432 39.838L213.9 37.318C213.924 37.198 213.978 37.105 214.062 37.039C214.152 36.973 214.263 36.94 214.395 36.94H215.547V39.847H217.977V41.431H215.547V46.435C215.547 46.723 215.619 46.948 215.763 47.11C215.907 47.272 216.099 47.353 216.339 47.353C216.477 47.353 216.591 47.338 216.681 47.308C216.777 47.272 216.858 47.236 216.924 47.2C216.996 47.164 217.059 47.131 217.113 47.101C217.167 47.065 217.221 47.047 217.275 47.047C217.341 47.047 217.395 47.065 217.437 47.101C217.479 47.131 217.524 47.179 217.572 47.245L218.238 48.325C217.914 48.595 217.542 48.799 217.122 48.937C216.702 49.075 216.267 49.144 215.817 49.144ZM223.561 39.622C224.143 39.622 224.677 39.715 225.163 39.901C225.655 40.087 226.078 40.36 226.432 40.72C226.786 41.074 227.062 41.512 227.26 42.034C227.458 42.55 227.557 43.141 227.557 43.807C227.557 43.975 227.548 44.116 227.53 44.23C227.518 44.338 227.491 44.425 227.449 44.491C227.413 44.551 227.362 44.596 227.296 44.626C227.23 44.65 227.146 44.662 227.044 44.662H221.338C221.404 45.61 221.659 46.306 222.103 46.75C222.547 47.194 223.135 47.416 223.867 47.416C224.227 47.416 224.536 47.374 224.794 47.29C225.058 47.206 225.286 47.113 225.478 47.011C225.676 46.909 225.847 46.816 225.991 46.732C226.141 46.648 226.285 46.606 226.423 46.606C226.513 46.606 226.591 46.624 226.657 46.66C226.723 46.696 226.78 46.747 226.828 46.813L227.476 47.623C227.23 47.911 226.954 48.154 226.648 48.352C226.342 48.544 226.021 48.7 225.685 48.82C225.355 48.934 225.016 49.015 224.668 49.063C224.326 49.111 223.993 49.135 223.669 49.135C223.027 49.135 222.43 49.03 221.878 48.82C221.326 48.604 220.846 48.289 220.438 47.875C220.03 47.455 219.709 46.939 219.475 46.327C219.241 45.709 219.124 44.995 219.124 44.185C219.124 43.555 219.226 42.964 219.43 42.412C219.634 41.854 219.925 41.371 220.303 40.963C220.687 40.549 221.152 40.222 221.698 39.982C222.25 39.742 222.871 39.622 223.561 39.622ZM223.606 41.215C222.958 41.215 222.451 41.398 222.085 41.764C221.719 42.13 221.485 42.649 221.383 43.321H225.559C225.559 43.033 225.52 42.763 225.442 42.511C225.364 42.253 225.244 42.028 225.082 41.836C224.92 41.644 224.716 41.494 224.47 41.386C224.224 41.272 223.936 41.215 223.606 41.215ZM229.36 49V39.766H230.665C230.893 39.766 231.052 39.808 231.142 39.892C231.232 39.976 231.292 40.12 231.322 40.324L231.457 41.44C231.787 40.87 232.174 40.42 232.618 40.09C233.062 39.76 233.56 39.595 234.112 39.595C234.568 39.595 234.946 39.7 235.246 39.91L234.958 41.575C234.94 41.683 234.901 41.761 234.841 41.809C234.781 41.851 234.7 41.872 234.598 41.872C234.508 41.872 234.385 41.851 234.229 41.809C234.073 41.767 233.866 41.746 233.608 41.746C233.146 41.746 232.75 41.875 232.42 42.133C232.09 42.385 231.811 42.757 231.583 43.249V49H229.36ZM242.189 41.566C242.129 41.662 242.066 41.731 242 41.773C241.934 41.809 241.85 41.827 241.748 41.827C241.64 41.827 241.523 41.797 241.397 41.737C241.277 41.677 241.136 41.611 240.974 41.539C240.812 41.461 240.626 41.392 240.416 41.332C240.212 41.272 239.969 41.242 239.687 41.242C239.249 41.242 238.904 41.335 238.652 41.521C238.4 41.707 238.274 41.95 238.274 42.25C238.274 42.448 238.337 42.616 238.463 42.754C238.595 42.886 238.766 43.003 238.976 43.105C239.192 43.207 239.435 43.3 239.705 43.384C239.975 43.462 240.251 43.549 240.533 43.645C240.815 43.741 241.091 43.852 241.361 43.978C241.631 44.098 241.871 44.254 242.081 44.446C242.297 44.632 242.468 44.857 242.594 45.121C242.726 45.385 242.792 45.703 242.792 46.075C242.792 46.519 242.711 46.93 242.549 47.308C242.387 47.68 242.15 48.004 241.838 48.28C241.526 48.55 241.139 48.763 240.677 48.919C240.221 49.069 239.696 49.144 239.102 49.144C238.784 49.144 238.472 49.114 238.166 49.054C237.866 49 237.575 48.922 237.293 48.82C237.017 48.718 236.759 48.598 236.519 48.46C236.285 48.322 236.078 48.172 235.898 48.01L236.411 47.164C236.477 47.062 236.555 46.984 236.645 46.93C236.735 46.876 236.849 46.849 236.987 46.849C237.125 46.849 237.254 46.888 237.374 46.966C237.5 47.044 237.644 47.128 237.806 47.218C237.968 47.308 238.157 47.392 238.373 47.47C238.595 47.548 238.874 47.587 239.21 47.587C239.474 47.587 239.699 47.557 239.885 47.497C240.077 47.431 240.233 47.347 240.353 47.245C240.479 47.143 240.569 47.026 240.623 46.894C240.683 46.756 240.713 46.615 240.713 46.471C240.713 46.255 240.647 46.078 240.515 45.94C240.389 45.802 240.218 45.682 240.002 45.58C239.792 45.478 239.549 45.388 239.273 45.31C239.003 45.226 238.724 45.136 238.436 45.04C238.154 44.944 237.875 44.833 237.599 44.707C237.329 44.575 237.086 44.41 236.87 44.212C236.66 44.014 236.489 43.771 236.357 43.483C236.231 43.195 236.168 42.847 236.168 42.439C236.168 42.061 236.243 41.701 236.393 41.359C236.543 41.017 236.762 40.72 237.05 40.468C237.344 40.21 237.707 40.006 238.139 39.856C238.577 39.7 239.081 39.622 239.651 39.622C240.287 39.622 240.866 39.727 241.388 39.937C241.91 40.147 242.345 40.423 242.693 40.765L242.189 41.566Z" fill="white"/>
</svg>
